# xmcd
#
# Track frame offsets:
#	182
#	10310
#	22337
#	34687
#	48505
#	60792
#	72155
#	84500
#	97057
#	111437
#	125595
#	138440
#	150482
#	161995
#	172350
#	183122
#	194117
#	206272
#
# Disc length: 2930 seconds
#
# Revision: 4
# Processed by: cddbd v1.5.2PL0 Copyright (c) Steve Scherf et al.
# Submitted via: EasyCDDAExtractor 16.0.6.1
#
DISCID=040b7012
DTITLE=Jimmy Reed - Jazz and Blues Collection - Jimmy Reed - Cd 13
DYEAR=1995
DGENRE=Blues
TTITLE0=Ain't that lovin' baby
TTITLE1=Bright lights, big city
TTITLE2=I don't go for that
TTITLE3=You don't have to go
TTITLE4=I love you baby
TTITLE5=Hush hush
TTITLE6=Pretty thing
TTITLE7=Big boss man
TTITLE8=Honey, where are you going
TTITLE9=Little rain
TTITLE10=The sun is shining
TTITLE11=Honest I do
TTITLE12=Close together
TTITLE13=I told you baby
TTITLE14=Aw shucks, hush your mouth
TTITLE15=Good lover
TTITLE16=A new leaf
TTITLE17=I' the man down there
EXTD=
EXTT0=
EXTT1=
EXTT2=
EXTT3=
EXTT4=
EXTT5=
EXTT6=
EXTT7=
EXTT8=
EXTT9=
EXTT10=
EXTT11=
EXTT12=
EXTT13=
EXTT14=
EXTT15=
EXTT16=
EXTT17=
PLAYORDER=
